# xmcd
#
# Track frame offsets:
#	150
#	13099
#	24742
#	39186
#	52205
#	65574
#	78618
#	89127
#	102184
#	113540
#
# Disc length: 1638 seconds
#
# Revision: 0
# Processed by: cddbd v1.4PL0 Copyright (c) Steve Scherf et al.
# Submitted via: dBpowerAMP V4.0
#
DISCID=8206640a
DTITLE=George Strait - #7
DYEAR=1900
DGENRE=Country
TTITLE0=Deep Water
TTITLE1=Nobody In His Right Mind Would've Left Her
TTITLE2=Rhythm Of The Road
TTITLE3=I'm Never Gonna Let You Go
TTITLE4=You Still Get To Me
TTITLE5=Stranger Things Have Happened
TTITLE6=It Ain't Cool To Be Crazy About You
TTITLE7=Why'd You Go And Break My Heart
TTITLE8=My Old Flame Burnin' Another Honky Tonk Down
TTITLE9=Cowtown
EXTD=
EXTT0=
EXTT1=
EXTT2=
EXTT3=
EXTT4=
EXTT5=
EXTT6=
EXTT7=
EXTT8=
EXTT9=
PLAYORDER=
